<?xml version="1.0" encoding="utf-8"?>
<!-- Generator: Adobe Illustrator 21.0.0, SVG Export Plug-In . SVG Version: 6.00 Build 0)  -->
<svg version="1.0" id="Capa_1" xmlns="http://www.w3.org/2000/svg" xmlns:xlink="http://www.w3.org/1999/xlink" x="0px" y="0px"
	 viewBox="0 0 512 512" style="enable-background:new 0 0 512 512;" xml:space="preserve">
<style type="text/css">
	.st0{fill:#FFFFFF;}
	.st1{fill:#D32F2F;}
	.st2{opacity:0.2;enable-background:new    ;}
	.st3{fill:#FAFEFF;stroke:#FFFFFF;stroke-width:16;stroke-miterlimit:10;}
</style>
<path class="st0" d="M512,93.1c0-25.7-20.9-46.5-46.5-46.5h-69.8v-35C395.6,5.2,390.4,0,384,0s-11.6,5.2-11.6,11.6v34.9H162.9V11.6
	c0-6.4-5.2-11.6-11.6-11.6c-6.4,0-11.6,5.2-11.6,11.6v34.9H46.5C20.9,46.5,0,67.4,0,93.1v372.4C0,491.1,20.9,512,46.5,512H384l0,0
	l0,0c3,0,6-1.2,8.2-3.4l116.4-116.4c2.2-2.2,3-5.2,3-8.2h0.5L512,93.1L512,93.1z"/>
<path class="st1" d="M46.5,69.8h93.1v23.3c-12.8,0-23.3,10.4-23.3,23.3s10.4,23.3,23.3,23.3s23.3-10.4,23.3-23.3V69.8h209.5v23.3
	c-12.8,0-23.3,10.4-23.3,23.3s10.4,23.3,23.3,23.3s23.3-10.4,23.3-23.3V69.8h69.8c12.8,0,23.3,10.4,23.3,23.3v69.8H23.3V93.1
	C23.3,80.3,33.7,69.8,46.5,69.8z"/>
<g>
	<rect x="162.9" y="69.8" class="st2" width="209.5" height="11.6"/>
	<path class="st2" d="M46.5,81.5h93.1V69.8H46.5c-12.8,0-23.3,10.4-23.3,23.3v11.6C23.3,91.9,33.7,81.5,46.5,81.5z"/>
	<path class="st2" d="M465.5,69.8h-69.8v11.6h69.8c12.8,0,23.3,10.4,23.3,23.3V93.1C488.7,80.3,478.3,69.8,465.5,69.8z"/>
	<path d="M372.4,418.9v69.8H46.5c-12.8,0-23.3-10.4-23.3-23.3V186.2h465.5v186.2h-69.8C393.3,372.4,372.4,393.2,372.4,418.9z"/>
</g>
<path d="M395.6,472.3v-53.4c0-12.8,10.4-23.3,23.3-23.3h53.4L395.6,472.3z"/>
<path class="st3" d="M142.7,387.5v-12.2l15.6-15.1c37.5-35.7,54.4-54.6,54.6-76.8c0-14.9-7.2-28.7-29.1-28.7
	c-13.3,0-24.4,6.8-31.2,12.4l-6.3-14c10.2-8.6,24.6-14.9,41.5-14.9c31.6,0,44.9,21.7,44.9,42.7c0,27.1-19.6,49-50.6,78.8l-11.7,10.8
	v0.5h65.9v16.5H142.7z"/>
<path class="st3" d="M279.2,364.7c5.6,3.6,18.7,9.3,32.5,9.3c25.5,0,33.4-16.3,33.2-28.4c-0.2-20.5-18.7-29.3-37.9-29.3h-11.1v-14.9
	H307c14.4,0,32.7-7.5,32.7-24.8c0-11.7-7.5-22.1-25.7-22.1c-11.7,0-23,5.2-29.3,9.7l-5.2-14.4c7.7-5.6,22.6-11.3,38.4-11.3
	c28.9,0,42,17.2,42,35c0,15.1-9,28-27.1,34.5v0.5c18.1,3.6,32.7,17.2,32.7,37.7c0,23.5-18.3,44-53.5,44c-16.5,0-30.9-5.2-38.2-9.9
	L279.2,364.7z"/>
</svg>
