<?xml version="1.0" encoding="iso-8859-1"?>
<!-- Generator: Adobe Illustrator 19.0.0, SVG Export Plug-In . SVG Version: 6.00 Build 0)  -->
<svg xmlns="http://www.w3.org/2000/svg" xmlns:xlink="http://www.w3.org/1999/xlink" version="1.1" id="Layer_1" x="0px" y="0px" viewBox="0 0 512 512" style="enable-background:new 0 0 512 512;" xml:space="preserve" width="512px" height="512px">
<g>
	<g>
		<g>
			<path d="M256,277.333c-29.417,0-53.333,23.927-53.333,53.333S226.583,384,256,384s53.333-23.927,53.333-53.333     S285.417,277.333,256,277.333z M256,362.667c-17.646,0-32-14.354-32-32c0-17.646,14.354-32,32-32s32,14.354,32,32     C288,348.313,273.646,362.667,256,362.667z" fill="#FFFFFF"/>
			<path d="M256,266.667c5.896,0,10.667-4.771,10.667-10.667v-10.667c0-5.896-4.771-10.667-10.667-10.667     s-10.667,4.771-10.667,10.667V256C245.333,261.896,250.104,266.667,256,266.667z" fill="#FFFFFF"/>
			<path d="M256,394.667c-5.896,0-10.667,4.771-10.667,10.667V416c0,5.896,4.771,10.667,10.667,10.667s10.667-4.771,10.667-10.667     v-10.667C266.667,399.438,261.896,394.667,256,394.667z" fill="#FFFFFF"/>
			<path d="M341.333,320h-10.667c-5.896,0-10.667,4.771-10.667,10.667c0,5.896,4.771,10.667,10.667,10.667h10.667     c5.896,0,10.667-4.771,10.667-10.667C352,324.771,347.229,320,341.333,320z" fill="#FFFFFF"/>
			<path d="M192,330.667c0-5.896-4.771-10.667-10.667-10.667h-10.667c-5.896,0-10.667,4.771-10.667,10.667     c0,5.896,4.771,10.667,10.667,10.667h10.667C187.229,341.333,192,336.563,192,330.667z" fill="#FFFFFF"/>
			<path d="M308.792,288.531c2.729,0,5.458-1.042,7.542-3.125l7.542-7.542c4.167-4.167,4.167-10.917,0-15.083     s-10.917-4.167-15.083,0l-7.542,7.542c-4.167,4.167-4.167,10.917,0,15.083C303.333,287.49,306.063,288.531,308.792,288.531z" fill="#FFFFFF"/>
			<path d="M195.667,375.927l-7.542,7.542c-4.167,4.167-4.167,10.917,0,15.083c2.083,2.083,4.813,3.125,7.542,3.125     c2.729,0,5.458-1.042,7.542-3.125l7.542-7.542c4.167-4.167,4.167-10.917,0-15.083C206.583,371.76,199.833,371.76,195.667,375.927     z" fill="#FFFFFF"/>
			<path d="M316.333,375.927c-4.167-4.167-10.917-4.167-15.083,0c-4.167,4.167-4.167,10.917,0,15.083l7.542,7.542     c2.083,2.083,4.813,3.125,7.542,3.125c2.729,0,5.458-1.042,7.542-3.125c4.167-4.167,4.167-10.917,0-15.083L316.333,375.927z" fill="#FFFFFF"/>
			<path d="M195.667,285.406c2.083,2.083,4.813,3.125,7.542,3.125c2.729,0,5.458-1.042,7.542-3.125     c4.167-4.167,4.167-10.917,0-15.083l-7.542-7.542c-4.167-4.167-10.917-4.167-15.083,0s-4.167,10.917,0,15.083L195.667,285.406z" fill="#FFFFFF"/>
			<path d="M384,262.375v-59.708c0-37.514-27.911-68.357-64-73.589V74.667C320,68.771,315.229,64,309.333,64h-10.667V28.154     c6.668-2.772,18.637-6.82,32-6.82c20.125,0,37.375,9.26,37.542,9.354c5.146,2.813,11.625,0.927,14.458-4.229     c2.834-5.156,0.959-11.625-4.187-14.469C377.604,11.5,356.458,0,330.667,0c-20.854,0-38.688,7.531-45.208,10.667h-82.792     c-5.896,0-10.667,4.771-10.667,10.667C192,27.229,196.771,32,202.667,32h10.667v32h-10.667C196.771,64,192,68.771,192,74.667     v54.411c-36.089,5.232-64,36.074-64,73.589v59.708c-40.729,36.49-64,88.302-64,142.958v64C64,492.865,83.146,512,106.667,512     h298.667C428.854,512,448,492.865,448,469.333v-64C448,350.677,424.729,298.865,384,262.375z M234.667,32h42.667v32h-42.667V32z      M213.333,85.333h85.333V128h-85.333V85.333z M426.667,469.333c0,11.76-9.563,21.333-21.333,21.333H106.667     c-11.771,0-21.333-9.573-21.333-21.333v-64c0-50.042,21.958-97.427,60.25-129.99c2.375-2.031,3.75-5,3.75-8.125v-64.552     c0-29.406,23.917-53.333,53.333-53.333h106.667c29.417,0,53.333,23.927,53.333,53.333v64.552c0,3.125,1.375,6.094,3.75,8.125     c38.292,32.563,60.25,79.948,60.25,129.99V469.333z" fill="#FFFFFF"/>
		</g>
	</g>
</g>
<g>
</g>
<g>
</g>
<g>
</g>
<g>
</g>
<g>
</g>
<g>
</g>
<g>
</g>
<g>
</g>
<g>
</g>
<g>
</g>
<g>
</g>
<g>
</g>
<g>
</g>
<g>
</g>
<g>
</g>
</svg>
